<?xml version="1.0" encoding="UTF-8" standalone="no"?>
<svg
   height="96"
   width="96"
   viewBox="0 0 96 96"
   fill="none"
   version="1.1"
   id="svg27"
   sodipodi:docname="adminCenter.svg"
   inkscape:version="1.2.2 (732a01da63, 2022-12-09)"
   xmlns:inkscape="http://www.inkscape.org/namespaces/inkscape"
   xmlns:sodipodi="http://sodipodi.sourceforge.net/DTD/sodipodi-0.dtd"
   xmlns="http://www.w3.org/2000/svg"
   xmlns:svg="http://www.w3.org/2000/svg">
  <sodipodi:namedview
     id="namedview29"
     pagecolor="#505050"
     bordercolor="#ffffff"
     borderopacity="1"
     inkscape:showpageshadow="0"
     inkscape:pageopacity="0"
     inkscape:pagecheckerboard="1"
     inkscape:deskcolor="#505050"
     showgrid="false"
     inkscape:zoom="6.4765625"
     inkscape:cx="31.112183"
     inkscape:cy="51.107358"
     inkscape:window-width="1920"
     inkscape:window-height="1009"
     inkscape:window-x="1912"
     inkscape:window-y="-8"
     inkscape:window-maximized="1"
     inkscape:current-layer="svg27" />
  <g
     id="g321"
     transform="matrix(2.65625,0,0,2.65625,5.5,5.5000173)">
    <path
       d="M 13.1684,3.651 C 14.0788,3.44311 15.0266,3.33331 16,3.33331 c 0.9734,0 1.9211,0.1098 2.8315,0.31769 L 20.4792,1.35888 C 20.7328,1.0061 21.1864,0.854461 21.5933,1.00681 22.4125,1.31354 23.2174,1.69175 24,2.14359 c 0.7826,0.45184 1.5126,0.95981 2.1878,1.51589 0.3354,0.2762 0.4309,0.7448 0.2521,1.14081 l -1.1624,2.57572 c 0.6464,0.69501 1.2156,1.46275 1.694,2.2896 0.4729,0.81739 0.8571,1.69249 1.1394,2.61219 l 2.8083,0.2808 c 0.4323,0.0432 0.7904,0.3602 0.8619,0.7887 C 31.9251,14.2101 32,15.0963 32,16 c 0,0.9037 -0.0749,1.7899 -0.2189,2.6527 -0.0715,0.4285 -0.4296,0.7455 -0.8619,0.7887 l -2.8083,0.2808 c -0.4086,1.3312 -1.0307,2.5689 -1.8263,3.6733 -0.3124,0.4356 -0.6487,0.8463 -1.0059,1.2312 l 1.1612,2.573 c 0.1788,0.396 0.0833,0.8646 -0.2521,1.1408 -0.6752,0.5561 -1.4052,1.0641 -2.1878,1.5159 -0.7826,0.4518 -1.5875,0.83 -2.4067,1.1368 -0.4069,0.1523 -0.8605,7e-4 -1.1141,-0.3521 L 18.8315,28.349 c -0.5096,0.1163 -1.0309,0.202 -1.5619,0.2548 -0.421,0.0428 -0.8447,0.0646 -1.2696,0.065 -0.4244,-4e-4 -0.8477,-0.0222 -1.2681,-0.0648 -0.5315,-0.0529 -1.0534,-0.1386 -1.5635,-0.255 l -1.6477,2.2921 c -0.2536,0.3528 -0.7071,0.5044 -1.114,0.3521 C 9.58752,30.6864 8.7826,30.3082 8,29.8564 7.21739,29.4045 6.48739,28.8966 5.81215,28.3405 5.47677,28.0643 5.38132,27.5957 5.56004,27.1997 l 1.16119,-2.573 C 6.3652,24.243 6.02998,23.8338 5.7184,23.3998 4.92136,22.2943 4.29821,21.0551 3.88906,19.7222 L 1.0808,19.4414 C 0.648483,19.3982 0.290386,19.0812 0.218882,18.6527 0.0749179,17.7898 0,16.9037 0,16 0,15.0963 0.0749176,14.2101 0.218881,13.3473 0.290386,12.9188 0.648482,12.6018 1.0808,12.5586 L 3.88905,12.2777 C 4.45697,10.4277 5.43717,8.75806 6.72245,7.376 L 5.56004,4.80029 C 5.38132,4.40428 5.47677,3.93568 5.81215,3.65948 6.48739,3.1034 7.21738,2.59543 7.99999,2.14359 8.7826,1.69175 9.58752,1.31354 10.4067,1.00681 c 0.4069,-0.152349 0.8604,-7.1e-4 1.114,0.35207 z"
       fill="url(#paint0_linear_20_275)"
       id="path2"
       style="fill:url(#paint0_linear_20_275)" />
    <circle
       cx="15.75"
       cy="16.25"
       r="8.75"
       fill="#000000"
       fill-opacity="0.1"
       id="circle4" />
    <path
       d="M 22.9282,12 C 22.2259,10.7837 21.2158,9.77365 19.9994,9.0715 18.7831,8.36934 17.4033,7.99979 15.9988,8 14.5943,8.00021 13.2146,8.37018 11.9984,9.0727 10.7822,9.77522 9.77244,10.7855 9.07056,12.0021 L 16,16 Z"
       fill="#ebf4fc"
       id="path6" />
    <path
       d="m 22.9282,12 c 0.7027,1.2171 1.0724,2.5979 1.0718,4.0034 -6e-4,1.4054 -0.3714,2.7859 -1.0752,4.0024 L 16,16 Z"
       fill="#cad2d9"
       id="path8" />
    <path
       d="m 22.9282,20 c -0.5253,0.9098 -1.2246,1.7073 -2.0581,2.3468 -0.8335,0.6396 -1.7848,1.1087 -2.7995,1.3806 -1.0148,0.2719 -2.0732,0.3413 -3.1148,0.2042 C 13.9142,23.7944 12.9098,23.4535 12,22.9282 11.0902,22.4029 10.2927,21.7036 9.65317,20.8701 9.01362,20.0366 8.5445,19.0853 8.27259,18.0706 8.00068,17.0558 7.93131,15.9974 8.06844,14.9558 8.20557,13.9142 8.54651,12.9098 9.0718,12 Z"
       fill="#a1aab3"
       id="path10" />
    <path
       opacity="0.5"
       d="M 6.55275,25 6.72123,24.6267 C 6.3652,24.243 6.02998,23.8338 5.7184,23.3998 5.46024,23.0417 5.22031,22.6696 5,22.2848 V 10.333 C 5,9.5968 5.5968,9 6.333,9 h 9.334 C 16.4032,9 17,9.5968 17,10.333 V 23.667 C 17,24.4032 16.4032,25 15.667,25 Z"
       fill="#000000"
       id="path12" />
    <path
       opacity="0.1"
       d="M 6.55275,25 6.72123,24.6267 C 6.3652,24.243 6.02998,23.8338 5.7184,23.3998 5.46024,23.0417 5.22031,22.6696 5,22.2848 V 10.333 C 5,9.5968 5.5968,9 6.333,9 h 9.334 C 16.4032,9 17,9.5968 17,10.333 V 23.667 C 17,24.4032 16.4032,25 15.667,25 Z"
       fill="#000000"
       id="path14" />
    <rect
       y="8"
       width="16"
       height="16"
       rx="1.3329999"
       fill="#0669bc"
       id="rect16"
       x="0" />
    <path
       d="M 6.69595,11 H 8.96234 L 12.6025,21 H 10.4616 L 9.65969,18.6151 H 5.91492 L 5.12692,21 H 3 Z M 9.17852,17.0739 8.01395,13.4547 C 7.89772,13.1106 7.82566,12.8387 7.79777,12.6388 H 7.75593 C 7.73734,12.8201 7.6676,13.099 7.54672,13.4756 L 6.3682,17.0739 Z"
       fill="#ffffff"
       id="path18" />
  </g>
  <defs
     id="defs25">
    <linearGradient
       id="paint0_linear_20_275"
       x1="5.375"
       y1="0.947815"
       x2="14.887"
       y2="31.399799"
       gradientUnits="userSpaceOnUse">
      <stop
         stop-color="#50E6FF"
         id="stop20" />
      <stop
         offset="1"
         stop-color="#0078D4"
         id="stop22" />
    </linearGradient>
  </defs>
</svg>
