<?xml version="1.0" encoding="UTF-8" standalone="no"?>
<svg
   data-slug-id="azure-blue"
   viewBox="0 0 96 96"
   version="1.1"
   id="svg33"
   sodipodi:docname="azure.svg"
   width="96"
   height="96"
   inkscape:version="1.2.2 (732a01da63, 2022-12-09)"
   xmlns:inkscape="http://www.inkscape.org/namespaces/inkscape"
   xmlns:sodipodi="http://sodipodi.sourceforge.net/DTD/sodipodi-0.dtd"
   xmlns="http://www.w3.org/2000/svg"
   xmlns:svg="http://www.w3.org/2000/svg">
  <sodipodi:namedview
     id="namedview35"
     pagecolor="#505050"
     bordercolor="#ffffff"
     borderopacity="1"
     inkscape:showpageshadow="0"
     inkscape:pageopacity="0"
     inkscape:pagecheckerboard="1"
     inkscape:deskcolor="#505050"
     showgrid="false"
     inkscape:zoom="3.2382812"
     inkscape:cx="66.238842"
     inkscape:cy="77.201448"
     inkscape:window-width="1920"
     inkscape:window-height="1009"
     inkscape:window-x="-8"
     inkscape:window-y="-8"
     inkscape:window-maximized="1"
     inkscape:current-layer="svg33" />
  <defs
     id="defs23">
    <linearGradient
       id="azure-blue_ab40b385-f958-420f-bfab-714be1677426"
       x1="-960.60602"
       y1="283.397"
       x2="-1032.511"
       y2="70.972"
       gradientTransform="matrix(1,0,0,-1,1075,318)"
       gradientUnits="userSpaceOnUse">
      <stop
         offset="0"
         stop-color="#114a8b"
         id="stop2" />
      <stop
         offset="1"
         stop-color="#0669bc"
         id="stop4" />
    </linearGradient>
    <linearGradient
       id="azure-blue_f40af90d-72eb-49b3-94b2-2510f1071722"
       x1="-938.14398"
       y1="184.40199"
       x2="-954.77802"
       y2="178.778"
       gradientTransform="matrix(1,0,0,-1,1075,318)"
       gradientUnits="userSpaceOnUse">
      <stop
         offset="0"
         stop-opacity=".3"
         id="stop7" />
      <stop
         offset=".071"
         stop-opacity=".2"
         id="stop9" />
      <stop
         offset=".321"
         stop-opacity=".1"
         id="stop11" />
      <stop
         offset=".623"
         stop-opacity=".05"
         id="stop13" />
      <stop
         offset="1"
         stop-opacity="0"
         id="stop15" />
    </linearGradient>
    <linearGradient
       id="azure-blue_e382d742-7d51-4974-a256-24e182eef053"
       x1="-947.29199"
       y1="289.59399"
       x2="-868.36298"
       y2="79.307999"
       gradientTransform="matrix(1,0,0,-1,1075,318)"
       gradientUnits="userSpaceOnUse">
      <stop
         offset="0"
         stop-color="#3ccbf4"
         id="stop18" />
      <stop
         offset="1"
         stop-color="#2892df"
         id="stop20" />
    </linearGradient>
  </defs>
  <g
     id="g345"
     transform="matrix(0.3632749,0,0,0.3632749,1.4476031,1.3191818)">
    <path
       d="m 89.158,18.266 h 69.238 L 86.523,231.224 a 11.041,11.041 0 0 1 -10.461,7.51 H 22.179 A 11.023,11.023 0 0 1 11.734,224.186 L 78.697,25.776 a 11.04,11.04 0 0 1 10.461,-7.51 z"
       fill="url(#azure-blue_ab40b385-f958-420f-bfab-714be1677426)"
       id="path25"
       style="fill:url(#azure-blue_ab40b385-f958-420f-bfab-714be1677426)" />
    <path
       d="M 189.77,161.104 H 79.976 a 5.083,5.083 0 0 0 -3.468,8.8 l 70.552,65.847 a 11.091,11.091 0 0 0 7.567,2.983 h 62.167 z"
       fill="#0078d4"
       id="path27" />
    <path
       d="M 89.158,18.266 A 10.95,10.95 0 0 0 78.675,25.92 L 11.817,224.006 a 11.01,11.01 0 0 0 10.393,14.728 h 55.274 a 11.814,11.814 0 0 0 9.069,-7.714 l 13.33,-39.29 47.625,44.418 a 11.267,11.267 0 0 0 7.089,2.586 h 61.937 l -27.166,-77.63 -79.19,0.018 48.47,-142.856 z"
       fill="url(#azure-blue_f40af90d-72eb-49b3-94b2-2510f1071722)"
       id="path29"
       style="fill:url(#azure-blue_f40af90d-72eb-49b3-94b2-2510f1071722)" />
    <path
       d="M 177.592,25.764 A 11.023,11.023 0 0 0 167.148,18.266 H 89.984 a 11.024,11.024 0 0 1 10.445,7.498 l 66.967,198.421 a 11.024,11.024 0 0 1 -10.445,14.549 h 77.164 a 11.024,11.024 0 0 0 10.444,-14.549 z"
       fill="url(#azure-blue_e382d742-7d51-4974-a256-24e182eef053)"
       id="path31"
       style="fill:url(#azure-blue_e382d742-7d51-4974-a256-24e182eef053)" />
  </g>
</svg>
