<?xml version="1.0" encoding="UTF-8" standalone="no"?>
<svg
   data-slug-id="purview"
   viewBox="0 0 96 96"
   version="1.1"
   id="svg45"
   sodipodi:docname="compliance.svg"
   width="96"
   height="96"
   inkscape:version="1.2.2 (732a01da63, 2022-12-09)"
   xmlns:inkscape="http://www.inkscape.org/namespaces/inkscape"
   xmlns:sodipodi="http://sodipodi.sourceforge.net/DTD/sodipodi-0.dtd"
   xmlns="http://www.w3.org/2000/svg"
   xmlns:svg="http://www.w3.org/2000/svg">
  <sodipodi:namedview
     id="namedview47"
     pagecolor="#505050"
     bordercolor="#ffffff"
     borderopacity="1"
     inkscape:showpageshadow="0"
     inkscape:pageopacity="0"
     inkscape:pagecheckerboard="1"
     inkscape:deskcolor="#505050"
     showgrid="false"
     inkscape:zoom="4.0707745"
     inkscape:cx="50.973102"
     inkscape:cy="53.061156"
     inkscape:window-width="1920"
     inkscape:window-height="1009"
     inkscape:window-x="-8"
     inkscape:window-y="-8"
     inkscape:window-maximized="1"
     inkscape:current-layer="svg45" />
  <g
     fill="none"
     clip-path="url(#purview_7eecea5a-40e3-4db9-9dc5-19ba2077ad59)"
     id="g12"
     transform="matrix(2.3611111,0,0,2.3611111,5.5000002,5.5000002)">
    <path
       d="m 21.154,17.6 a 3.244,3.244 0 0 1 -3.244,-3.24 3.958,3.958 0 1 0 3.922,3.166 c -0.223,0.048 -0.45,0.073 -0.678,0.074 z"
       fill="url(#purview_fd02e1e2-5027-4df2-aa3f-ddfde1d67b84)"
       id="path2"
       style="fill:url(#purview_fd02e1e2-5027-4df2-aa3f-ddfde1d67b84)" />
    <path
       d="M 25.724,22.462 A 10.104,10.104 0 0 0 24.412,18.414 6.436,6.436 0 0 1 18,24.454 c -0.154,0 -0.298,-0.034 -0.448,-0.046 a 13.47,13.47 0 0 1 -9.118,-3.72 17.448,17.448 0 0 1 -4.562,-7.366 40.901,40.901 0 0 0 -3.284,3.348 1.82,1.82 0 0 0 0,2.672 33.774,33.774 0 0 0 7.732,6.816 17.6,17.6 0 0 0 9.942,3.082 14.399,14.399 0 0 0 6.636,-1.578 c 0.13,-0.06 0.242,-0.14 0.37,-0.2 0.455,-1.625 0.61,-3.32 0.456,-5 z"
       fill="url(#purview_5dfa9eed-0883-4c67-a51c-400b452f2191)"
       id="path4"
       style="fill:url(#purview_5dfa9eed-0883-4c67-a51c-400b452f2191)" />
    <path
       d="m 12.316,21 a 6.354,6.354 0 0 1 1.182,-7.614 12.828,12.828 0 0 1 6.49,-4.6 15.83,15.83 0 0 1 4.364,-0.688 16.753,16.753 0 0 0 -3.714,-1.12 15.956,15.956 0 0 0 -10.214,1.686 28.557,28.557 0 0 0 -4.92,3.236 15.672,15.672 0 0 0 4.2,7.23 11.956,11.956 0 0 0 2.612,1.87 z"
       fill="url(#purview_5935bc4b-fd6d-4c81-b597-7cc386117562)"
       id="path6"
       style="fill:url(#purview_5935bc4b-fd6d-4c81-b597-7cc386117562)" />
    <path
       d="M 35.46,16.758 A 34.4,34.4 0 0 0 28.748,10.6 14.878,14.878 0 0 0 20.766,10.64 c -0.783,0.239 -1.54,0.56 -2.254,0.96 a 6.418,6.418 0 0 1 3.124,1.072 c 0.083,0.024 0.163,0.06 0.236,0.106 a 13.426,13.426 0 0 1 5.782,9.088 c 0.183,1.437 0.16,2.892 -0.066,4.322 a 33.905,33.905 0 0 0 7.864,-6.914 1.724,1.724 0 0 0 0.008,-2.516 z"
       fill="url(#purview_b45c6129-1dae-4737-a1c5-3f77434397db)"
       id="path8"
       style="fill:url(#purview_b45c6129-1dae-4737-a1c5-3f77434397db)" />
    <path
       d="M 42.758,-7.476 H -5.8 v 55.542 h 48.558 z"
       stroke="#b31b1b"
       stroke-miterlimit="10"
       id="path10" />
  </g>
  <defs
     id="defs43">
    <linearGradient
       id="purview_fd02e1e2-5027-4df2-aa3f-ddfde1d67b84"
       x1="17.954"
       y1="22.268"
       x2="17.954"
       y2="14.356"
       gradientUnits="userSpaceOnUse">
      <stop
         stop-color="#29BADE"
         id="stop14" />
      <stop
         offset="1"
         stop-color="#50E6FF"
         id="stop16" />
    </linearGradient>
    <linearGradient
       id="purview_5dfa9eed-0883-4c67-a51c-400b452f2191"
       x1="12.892"
       y1="29.252001"
       x2="12.892"
       y2="6.7480001"
       gradientUnits="userSpaceOnUse">
      <stop
         offset=".041"
         stop-color="#32BEDD"
         id="stop19" />
      <stop
         offset=".495"
         stop-color="#50E6FF"
         id="stop21" />
      <stop
         offset=".92"
         stop-color="#C3F1FF"
         id="stop23" />
    </linearGradient>
    <linearGradient
       id="purview_5935bc4b-fd6d-4c81-b597-7cc386117562"
       x1="14.928"
       y1="20.094"
       x2="14.928"
       y2="0.50800002"
       gradientUnits="userSpaceOnUse">
      <stop
         offset=".244"
         stop-color="#0078D4"
         id="stop26" />
      <stop
         offset=".6"
         stop-color="#2E8CE1"
         id="stop28" />
      <stop
         offset=".933"
         stop-color="#589EED"
         id="stop30" />
    </linearGradient>
    <linearGradient
       id="purview_b45c6129-1dae-4737-a1c5-3f77434397db"
       x1="27.256001"
       y1="29.252001"
       x2="27.256001"
       y2="8.3859997"
       gradientUnits="userSpaceOnUse">
      <stop
         stop-color="#005BA1"
         id="stop33" />
      <stop
         offset=".399"
         stop-color="#0078D4"
         id="stop35" />
      <stop
         offset=".857"
         stop-color="#5EA0EF"
         id="stop37" />
    </linearGradient>
    <clipPath
       id="purview_7eecea5a-40e3-4db9-9dc5-19ba2077ad59">
      <path
         fill="#ffffff"
         d="M 0,0 H 36 V 36 H 0 Z"
         id="path40" />
    </clipPath>
  </defs>
</svg>
