<?xml version="1.0" encoding="UTF-8" standalone="no"?>
<svg
   viewBox="0 0 19.2 19.2"
   width="96"
   height="96"
   version="1.1"
   id="svg18"
   sodipodi:docname="defender.svg"
   inkscape:version="1.2.2 (732a01da63, 2022-12-09)"
   xmlns:inkscape="http://www.inkscape.org/namespaces/inkscape"
   xmlns:sodipodi="http://sodipodi.sourceforge.net/DTD/sodipodi-0.dtd"
   xmlns="http://www.w3.org/2000/svg"
   xmlns:svg="http://www.w3.org/2000/svg">
  <defs
     id="defs22" />
  <sodipodi:namedview
     id="namedview20"
     pagecolor="#505050"
     bordercolor="#ffffff"
     borderopacity="1"
     inkscape:showpageshadow="0"
     inkscape:pageopacity="0"
     inkscape:pagecheckerboard="1"
     inkscape:deskcolor="#505050"
     showgrid="false"
     inkscape:zoom="1.2212323"
     inkscape:cx="24.155928"
     inkscape:cy="149.02979"
     inkscape:window-width="1920"
     inkscape:window-height="1009"
     inkscape:window-x="-8"
     inkscape:window-y="-8"
     inkscape:window-maximized="1"
     inkscape:current-layer="svg18" />
  <g
     id="g313"
     transform="matrix(0.425,0,0,0.425,-0.6,-0.6)">
    <path
       fill="#0370c8"
       d="m 24,44 c -0.552,0 -1,-0.448 -1,-1 0,-0.552 0.448,-1 1,-1 z"
       id="path2" />
    <path
       fill="#0f5094"
       d="m 25,43 c 0,0.552 -0.448,1 -1,1 v -2 c 0.552,0 1,0.448 1,1 z"
       id="path4" />
    <circle
       cx="42"
       cy="11"
       r="1"
       fill="#0883d9"
       id="circle6" />
    <circle
       cx="6"
       cy="11"
       r="1"
       fill="#33bff0"
       id="circle8" />
    <path
       fill="#0f5094"
       d="m 24,43 0.427,0.907 c 0,0 15.144,-7.9 18.08,-19.907 H 24 Z"
       id="path10" />
    <path
       fill="#0883d9"
       d="M 43,11 42,10 C 30.878,10 30.722,4 24,4 V 24 H 42.507 C 42.822,22.712 43,21.378 43,20 c 0,-3.144 0,-9 0,-9 z"
       id="path12" />
    <path
       fill="#0370c8"
       d="m 24,43 -0.427,0.907 c 0,0 -15.144,-7.9 -18.08,-19.907 H 24 Z"
       id="path14" />
    <path
       fill="#33bff0"
       d="M 5,11 6,10 C 17.122,10 17.278,4 24,4 V 24 H 5.493 C 5.178,22.712 5,21.378 5,20 5,16.856 5,11 5,11 Z"
       id="path16" />
  </g>
</svg>
