<?xml version="1.0" encoding="UTF-8" standalone="no"?>
<svg
   viewBox="0 0 19.2 19.2"
   width="96"
   height="96"
   version="1.1"
   id="svg18"
   sodipodi:docname="defender.svg"
   inkscape:version="1.2.2 (732a01da63, 2022-12-09)"
   xmlns:inkscape="http://www.inkscape.org/namespaces/inkscape"
   xmlns:sodipodi="http://sodipodi.sourceforge.net/DTD/sodipodi-0.dtd"
   xmlns="http://www.w3.org/2000/svg"
   xmlns:svg="http://www.w3.org/2000/svg">
  <defs
     id="defs22" />
  <sodipodi:namedview
     id="namedview20"
     pagecolor="#505050"
     bordercolor="#ffffff"
     borderopacity="1"
     inkscape:showpageshadow="0"
     inkscape:pageopacity="0"
     inkscape:pagecheckerboard="1"
     inkscape:deskcolor="#505050"
     showgrid="false"
     inkscape:zoom="3.4541666"
     inkscape:cx="42.702052"
     inkscape:cy="50.373946"
     inkscape:window-width="1920"
     inkscape:window-height="1009"
     inkscape:window-x="-8"
     inkscape:window-y="-8"
     inkscape:window-maximized="1"
     inkscape:current-layer="svg18" />
  <path
     id="circle6"
     style="stroke-width:0.425;fill:#0883d9;fill-opacity:1"
     d="M 10.349609 1.165625 L 10.349609 8.8496094 L 17.464844 8.8496094 L 17.608984 8.8496094 C 17.651855 8.5388025 17.675 8.2222732 17.675 7.9 L 17.675 4.075 A 0.42500001 0.42500001 0 0 0 17.25 3.65 C 12.975408 3.65 12.511913 1.5646712 10.349609 1.165625 z " />
  <path
     id="circle8"
     style="stroke-width:0.425;fill:#33bff0;fill-opacity:1"
     d="M 8.8496094 1.165625 C 6.6894707 1.5646864 6.224703 3.646911 1.959375 3.65 C 1.9562085 3.6500023 1.9531707 3.65 1.95 3.65 A 0.42500001 0.42500001 0 0 0 1.525 4.075 L 1.525 7.9 C 1.525 8.2222732 1.5481446 8.5388025 1.5910156 8.8496094 L 1.734375 8.8496094 L 8.8496094 8.8496094 L 8.8496094 1.165625 z " />
  <path
     id="path10"
     style="stroke-width:0.425;fill:#0f5094;fill-opacity:1"
     d="M 10.349609 10.349609 L 10.349609 17.737109 C 11.850732 16.841391 15.906785 14.135615 17.241406 10.349609 L 10.349609 10.349609 z " />
  <path
     id="path14"
     style="stroke-width:0.425;fill:#0370c8;fill-opacity:1"
     d="M 1.9585938 10.349609 C 3.29293 14.134805 7.3477145 16.840027 8.8496094 17.736328 L 8.8496094 10.349609 L 1.9585938 10.349609 z " />
</svg>
