<?xml version="1.0" encoding="UTF-8" standalone="no"?>
<svg
   viewBox="4 8 96 96"
   version="1.1"
   id="svg22"
   sodipodi:docname="exchange.svg"
   width="96"
   height="96"
   inkscape:version="1.2.2 (732a01da63, 2022-12-09)"
   xmlns:inkscape="http://www.inkscape.org/namespaces/inkscape"
   xmlns:sodipodi="http://sodipodi.sourceforge.net/DTD/sodipodi-0.dtd"
   xmlns="http://www.w3.org/2000/svg"
   xmlns:svg="http://www.w3.org/2000/svg"
   xmlns:rdf="http://www.w3.org/1999/02/22-rdf-syntax-ns#"
   xmlns:cc="http://creativecommons.org/ns#"
   xmlns:dc="http://purl.org/dc/elements/1.1/">
  <defs
     id="defs26" />
  <sodipodi:namedview
     id="namedview24"
     pagecolor="#505050"
     bordercolor="#ffffff"
     borderopacity="1"
     inkscape:showpageshadow="0"
     inkscape:pageopacity="0"
     inkscape:pagecheckerboard="1"
     inkscape:deskcolor="#505050"
     showgrid="false"
     inkscape:zoom="6.1061617"
     inkscape:cx="11.218177"
     inkscape:cy="41.597326"
     inkscape:window-width="1920"
     inkscape:window-height="1009"
     inkscape:window-x="-8"
     inkscape:window-y="-8"
     inkscape:window-maximized="1"
     inkscape:current-layer="svg22" />
  <title
     id="title2">Exchange_64x</title>
  <g
     id="g320"
     transform="matrix(1.5454607,0,0,1.5454607,3.3178181,6.5452576)">
    <path
       d="m 55.50977,8 h -12.207 A 3.48835,3.48835 0 0 0 40.835,9.02246 L 12.02246,37.835 A 3.48835,3.48835 0 0 0 11,40.30273 v 12.207 A 3.49006,3.49006 0 0 0 14.49023,56 h 12.207 A 3.48835,3.48835 0 0 0 29.165,54.97754 L 57.978,26.165 A 3.48994,3.48994 0 0 0 59,23.69727 v -12.207 A 3.49007,3.49007 0 0 0 55.50977,8 Z"
       fill="#28a8ea"
       id="path4" />
    <path
       d="M 55.51,56 H 43.30275 a 3.49,3.49 0 0 1 -2.4678,-1.0222 L 35,49.14286 V 38.24 A 6.24,6.24 0 0 1 41.24,32 h 10.90286 l 5.83494,5.835 A 3.49,3.49 0 0 1 59,40.30275 V 52.51 A 3.49,3.49 0 0 1 55.51,56 Z"
       fill="#0078d4"
       id="path6" />
    <path
       d="m 14.49,8 h 12.20725 a 3.49,3.49 0 0 1 2.4678,1.0222 L 35,14.85714 V 25.76 A 6.24,6.24 0 0 1 28.76,32 H 17.85714 L 12.0222,26.16505 A 3.49,3.49 0 0 1 11,23.69725 V 11.49 A 3.49,3.49 0 0 1 14.49,8 Z"
       fill="#50d9ff"
       id="path8" />
    <path
       d="M 33,20.33008 V 46.66992 A 1.73444,1.73444 0 0 1 32.96,47.06982 2.31378,2.31378 0 0 1 30.66992,49 H 11 V 18 H 30.66992 A 2.326,2.326 0 0 1 33,20.33008 Z"
       opacity="0.2"
       id="path10" />
    <path
       d="M 34,20.33008 V 44.66992 A 3.36171,3.36171 0 0 1 30.66992,48 H 11 V 17 H 30.66992 A 3.34177,3.34177 0 0 1 34,20.33008 Z"
       opacity="0.1"
       id="path12" />
    <path
       d="M 33,20.33008 V 44.66992 A 2.326,2.326 0 0 1 30.66992,47 H 11 V 18 H 30.66992 A 2.326,2.326 0 0 1 33,20.33008 Z"
       opacity="0.2"
       id="path14" />
    <path
       d="M 32,20.33008 V 44.66992 A 2.326,2.326 0 0 1 29.66992,47 H 11 V 18 H 29.66992 A 2.326,2.326 0 0 1 32,20.33008 Z"
       opacity="0.1"
       id="path16" />
    <rect
       x="4.0002198"
       y="18"
       width="28"
       height="28"
       rx="2.3333299"
       fill="#0078d4"
       id="rect18" />
    <path
       d="m 22.58533,26.88121 h -6.5472 v 3.82859 h 6.14535 v 2.45375 h -6.14535 v 3.97655 h 6.89609 v 2.4434 h -9.868 v -15.167 h 9.5191 z"
       fill="#ffffff"
       id="path20" />
  </g>
  <metadata
     id="metadata151">
    <rdf:RDF>
      <cc:Work
         rdf:about="">
        <dc:title>Exchange_64x</dc:title>
      </cc:Work>
    </rdf:RDF>
  </metadata>
</svg>
