<?xml version="1.0"?>
<svg xmlns="http://www.w3.org/2000/svg" viewBox="0 0 50 50">
    <path style="line-height:normal;text-indent:0;text-align:start;text-decoration-line:none;text-decoration-style:solid;text-decoration-color:#000;text-transform:none;block-progression:tb;isolation:auto;mix-blend-mode:normal" d="M 27 6 C 22.730625 6 19.454663 7.7572299 17.632812 10.34375 C 17.210473 10.943355 16.870944 11.585156 16.615234 12.255859 L 15.998047 11 L 15.375 11 C 11.891482 11 9.3103952 12.409178 7.953125 14.505859 C 6.7152999 16.418025 6.6363735 18.813181 7.4082031 21.050781 C 7.0756899 21.506045 6.8282173 22.079034 6.921875 22.880859 C 7.0274578 23.782641 7.265529 24.449518 7.640625 24.941406 C 7.8061703 25.158497 8.0451365 25.168624 8.2539062 25.300781 C 8.3886608 26.031582 8.5837737 26.761966 8.8789062 27.367188 C 9.0579807 27.73441 9.250315 28.064083 9.4550781 28.347656 C 9.5191171 28.436346 9.6320304 28.498818 9.6972656 28.580078 C 9.7024956 29.376679 9.7123926 30.065788 9.6503906 30.892578 C 9.4662318 31.341764 9.015868 31.756597 8.1777344 32.179688 C 7.3105477 32.617443 6.1492575 33.02122 4.96875 33.539062 C 3.7882425 34.056906 2.5686683 34.694418 1.6074219 35.720703 C 0.6461754 36.746988 0 38.187372 0 40 L 0 41 L 7.2363281 41 C 7.0889993 41.621439 7 42.284672 7 43 L 7 44 L 22.033203 44 L 43 44 L 43 43 C 43 42.284465 42.912169 41.621474 42.765625 41 L 50.060547 41 L 49.998047 39.941406 C 49.891937 38.124223 49.165466 36.704296 48.15625 35.693359 C 47.147034 34.682423 45.901231 34.051438 44.701172 33.541016 C 43.501112 33.030593 42.330994 32.636498 41.460938 32.205078 C 40.625625 31.790886 40.184658 31.383233 40 30.943359 L 40 28.685547 C 40.07017 28.609117 40.173387 28.553454 40.246094 28.466797 C 40.473706 28.195513 40.70256 27.87113 40.919922 27.505859 C 41.269331 26.918688 41.503396 26.184592 41.669922 25.441406 C 41.841434 25.33299 41.916357 25.329508 42.125 25.101562 C 42.526622 24.662785 42.930532 23.947244 43.044922 22.96875 L 43.044922 22.966797 C 43.143012 22.124688 42.86301 21.560519 42.59375 21.171875 C 42.796507 20.677408 43.045075 20.216625 43.103516 19.613281 C 43.193236 18.687019 43.135606 17.651781 42.873047 16.636719 C 42.610493 15.621657 42.140409 14.616552 41.34375 13.833984 C 40.699485 13.201115 39.786304 12.823814 38.761719 12.671875 L 38.017578 11 L 37.367188 11 C 35.912298 11 34.440223 11.187252 33.064453 11.636719 C 32.726657 10.884186 32.292893 10.174549 31.712891 9.578125 C 30.952869 8.7965848 29.88818 8.3140095 28.691406 8.1445312 L 27.617188 6 L 27 6 z M 26.412109 8.0605469 L 27.382812 10 L 28 10 C 28.9847 10 29.676521 10.354823 30.277344 10.972656 C 30.878166 11.59049 31.346124 12.501739 31.630859 13.503906 C 31.915595 14.506073 32.018912 15.592207 31.962891 16.5 C 31.906871 17.407793 31.644649 18.135644 31.478516 18.349609 L 30.929688 19.056641 L 31.570312 19.679688 C 31.570312 19.679688 32.031028 20.19767 31.96875 20.722656 C 31.87371 21.521592 31.590474 21.939227 31.355469 22.191406 C 31.120463 22.443586 31.007813 22.476564 31.007812 22.476562 L 30.458984 22.705078 L 30.396484 23.296875 C 30.321234 24.00909 29.940056 24.9927 29.496094 25.78125 C 29.274113 26.175525 29.037935 26.526326 28.839844 26.775391 C 28.641753 27.024455 28.422912 27.174736 28.53125 27.117188 L 28 27.398438 L 28 30.558594 C 27.808233 30.722964 27.534457 30.941873 27.195312 31.167969 C 26.530652 31.611076 25.666667 32 25 32 C 24.333333 32 23.469349 31.611076 22.804688 31.167969 C 22.465543 30.941873 22.191767 30.722964 22 30.558594 L 22 27.398438 L 21.46875 27.117188 C 21.576913 27.174557 21.356339 27.024378 21.158203 26.775391 C 20.960067 26.526399 20.725852 26.175462 20.503906 25.78125 C 20.060015 24.992827 19.678358 24.008831 19.603516 23.296875 L 19.541016 22.705078 L 18.992188 22.476562 C 18.992188 22.476562 18.879537 22.443582 18.644531 22.191406 C 18.409526 21.939227 18.126295 21.521592 18.03125 20.722656 L 18.03125 20.720703 C 17.96859 20.196588 18.427734 19.679687 18.427734 19.679688 L 18.929688 19.195312 L 18.646484 18.556641 C 17.559914 16.112302 17.844427 13.516574 19.267578 11.496094 C 20.609708 9.5906405 23.017527 8.2161024 26.412109 8.0605469 z M 36.765625 13.105469 L 37.402344 14.535156 L 38.052734 14.535156 C 38.932428 14.535156 39.485675 14.810177 39.943359 15.259766 C 40.401044 15.709355 40.741679 16.379656 40.9375 17.136719 C 41.133321 17.893782 41.180468 18.726278 41.113281 19.419922 C 41.046091 20.113565 40.819842 20.675794 40.730469 20.792969 L 40.195312 21.494141 L 40.822266 22.111328 C 40.822266 22.111328 41.09257 22.446836 41.058594 22.736328 C 40.991624 23.31167 40.799709 23.586867 40.650391 23.75 C 40.501073 23.913133 40.470703 23.912109 40.470703 23.912109 L 39.925781 24.142578 L 39.865234 24.730469 C 39.813974 25.222669 39.533198 25.926415 39.201172 26.484375 C 39.035159 26.763355 38.859075 27.009737 38.714844 27.181641 C 38.570613 27.353544 38.408619 27.453682 38.525391 27.390625 L 38 27.673828 L 38 30.197266 C 37.649777 30.479014 36.887161 31 36 31 L 35 31 L 35 33.902344 C 33.966417 33.460315 32.971083 33.039883 32.158203 32.617188 C 31.001251 32.015574 30.285216 31.399932 30 30.738281 L 30 28.394531 C 30.121338 28.267282 30.2844 28.172736 30.40625 28.019531 C 30.687128 27.666377 30.969387 27.241272 31.238281 26.763672 C 31.694114 25.954038 32.017248 24.977835 32.208984 24.001953 C 32.415613 23.879689 32.532798 23.861118 32.818359 23.554688 C 33.308604 23.028616 33.80917 22.169049 33.953125 20.958984 L 33.953125 20.957031 C 34.069609 19.975105 33.738501 19.306982 33.416016 18.839844 C 33.716773 18.181959 33.907566 17.456256 33.958984 16.623047 C 34.018796 15.65379 33.928986 14.591665 33.691406 13.539062 C 34.631948 13.260245 35.694609 13.150614 36.765625 13.105469 z M 14.808594 13.115234 L 15.439453 14.400391 L 16.0625 14.400391 C 16.073589 14.400391 16.082763 14.40225 16.09375 14.402344 C 15.929274 15.837142 16.107096 17.329165 16.636719 18.767578 C 16.301956 19.217095 15.91999 19.897676 16.046875 20.958984 C 16.19083 22.169049 16.691396 23.028616 17.181641 23.554688 C 17.466608 23.86048 17.582448 23.879577 17.789062 24.001953 C 17.980352 24.978222 18.303787 25.953779 18.759766 26.763672 C 19.028695 27.241335 19.312667 27.666304 19.59375 28.019531 C 19.715689 28.172768 19.878515 28.267243 20 28.394531 L 20 30.738281 C 19.714623 31.400477 18.997031 32.019143 17.839844 32.623047 C 17.027251 33.047116 16.032386 33.467166 15 33.910156 L 15 31 L 14 31 C 12.752016 31 11.992759 30.466976 11.6875 30.197266 C 11.706717 29.519888 11.705078 28.887358 11.705078 28.212891 L 11.705078 27.615234 L 11.179688 27.332031 C 11.328806 27.412671 11.193098 27.339631 11.076172 27.177734 C 10.959248 27.015808 10.81441 26.770511 10.677734 26.490234 C 10.404383 25.92968 10.167227 25.212898 10.109375 24.654297 L 10.023438 23.830078 L 9.2617188 23.765625 C 9.2557655 23.759336 9.2576736 23.76163 9.2324219 23.728516 C 9.1522679 23.623404 8.9875736 23.309656 8.9101562 22.648438 C 8.8684261 22.291175 9.0005091 22.14602 9.0195312 22.126953 L 9.7070312 21.693359 L 9.3632812 20.904297 C 8.5484386 19.039054 8.6703327 17.078615 9.6328125 15.591797 C 10.520024 14.221252 12.240484 13.27055 14.808594 13.115234 z M 11.212891 32.246094 C 11.742568 32.544117 12.429925 32.830607 13.271484 32.941406 L 13.109375 34.759766 C 12.625256 34.993375 12.147155 35.248048 11.675781 35.523438 L 10.417969 33.105469 C 10.719396 32.856078 10.993204 32.576108 11.212891 32.246094 z M 38.449219 32.320312 C 38.603383 32.545653 38.782654 32.748346 38.978516 32.933594 L 38.134766 35.402344 C 37.723329 35.169324 37.308683 34.950252 36.888672 34.748047 L 36.728516 32.9375 C 37.403535 32.829093 37.985941 32.583755 38.449219 32.320312 z M 21.267578 32.505859 C 21.417211 32.618985 21.518945 32.714453 21.695312 32.832031 C 22.273014 33.217166 23.002855 33.615113 23.833984 33.832031 L 23.091797 42 L 22.683594 42 C 22.163131 40.666696 20.604447 36.428652 20.46875 33.289062 C 20.759859 33.048843 21.035354 32.795537 21.267578 32.505859 z M 28.732422 32.505859 C 28.964633 32.795543 29.240156 33.048962 29.53125 33.289062 C 29.395553 36.428652 27.836869 40.666696 27.316406 42 L 26.908203 42 L 26.166016 33.832031 C 26.997145 33.615113 27.726985 33.217166 28.304688 32.832031 C 28.481055 32.714453 28.582789 32.618985 28.732422 32.505859 z M 40.708984 34.054688 C 41.73387 34.548015 42.86002 34.932836 43.917969 35.382812 C 45.021409 35.85214 46.026825 36.392796 46.740234 37.107422 C 47.234726 37.602756 47.550727 38.241376 47.761719 39 L 41.992188 39 C 41.687534 38.456001 41.330777 37.958849 40.923828 37.519531 C 40.592106 37.161424 40.232705 36.840024 39.857422 36.541016 L 40.708984 34.054688 z M 8.6972656 34.132812 L 10.011719 36.660156 C 9.6841453 36.929551 9.3690465 37.215468 9.0761719 37.53125 C 8.6717998 37.96725 8.3171756 38.460904 8.0136719 39 A 1.0001 1.0001 0 0 0 8 39 L 2.1679688 39 C 2.3275907 38.227359 2.6007755 37.585026 3.0664062 37.087891 C 3.7249098 36.384832 4.6919918 35.842672 5.7714844 35.369141 C 6.7259574 34.95045 7.7436775 34.578297 8.6972656 34.132812 z M 31.458984 34.501953 C 32.783808 35.167674 34.270403 35.724264 35.669922 36.375 C 37.147339 37.061957 38.506102 37.850386 39.457031 38.876953 C 40.207782 39.687419 40.637507 40.723792 40.826172 42 L 29.478516 42 C 30.125126 40.305665 31.139001 37.32299 31.458984 34.501953 z M 18.541016 34.503906 C 18.861251 37.324388 19.875023 40.306054 20.521484 42 L 9.1757812 42 C 9.3648387 40.731341 9.7928705 39.699391 10.542969 38.890625 C 11.494171 37.865025 12.854248 37.075722 14.332031 36.386719 C 15.731952 35.734019 17.216508 35.172277 18.541016 34.503906 z"/>
</svg>
