<?xml version="1.0" encoding="UTF-8" standalone="no"?>
<svg
   viewBox="0 0 19.2 19.2"
   width="96"
   height="96"
   version="1.1"
   id="svg18"
   sodipodi:docname="intune.svg"
   inkscape:version="1.4 (86a8ad7, 2024-10-11)"
   xmlns:inkscape="http://www.inkscape.org/namespaces/inkscape"
   xmlns:sodipodi="http://sodipodi.sourceforge.net/DTD/sodipodi-0.dtd"
   xmlns="http://www.w3.org/2000/svg"
   xmlns:svg="http://www.w3.org/2000/svg">
  <defs
     id="defs22">
    <clipPath
       id="clip0_10641_164">
      <rect
         width="400"
         height="400"
         fill="#ffffff"
         transform="translate(0.685181,0.713501)"
         id="rect33"
         x="0"
         y="0" />
    </clipPath>
    <linearGradient
       id="paint0_linear_10641_164"
       x1="171.50101"
       y1="396.026"
       x2="314.25601"
       y2="90.564598"
       gradientUnits="userSpaceOnUse">
      <stop
         offset="0.02"
         stop-color="#1169DA"
         id="stop8" />
      <stop
         offset="0.434784"
         stop-color="#0151BD"
         id="stop9" />
      <stop
         offset="0.614436"
         stop-color="#014DB7"
         id="stop10" />
      <stop
         offset="1"
         stop-color="#126AD9"
         id="stop11" />
    </linearGradient>
    <radialGradient
       id="paint1_radial_10641_164"
       cx="0"
       cy="0"
       r="1"
       gradientUnits="userSpaceOnUse"
       gradientTransform="matrix(-101.02759,274.23041,-205.4204,-75.677699,358.656,-48.704)">
      <stop
         offset="0.422966"
         stop-color="#004AFF"
         stop-opacity="0.1"
         id="stop12" />
      <stop
         offset="0.728672"
         stop-color="#014DB9"
         id="stop13" />
      <stop
         offset="0.836135"
         stop-color="#014DB9"
         stop-opacity="0.9"
         id="stop14" />
      <stop
         offset="0.955"
         stop-color="#014DB9"
         stop-opacity="0"
         id="stop15" />
    </radialGradient>
    <radialGradient
       id="paint2_radial_10641_164"
       cx="0"
       cy="0"
       r="1"
       gradientUnits="userSpaceOnUse"
       gradientTransform="matrix(65.523513,-223.25113,271.94806,79.815912,54.0821,384.087)">
      <stop
         offset="0.0908532"
         stop-color="#004AFF"
         stop-opacity="0.1"
         id="stop16" />
      <stop
         offset="0.56036"
         stop-color="#014DB9"
         id="stop17" />
      <stop
         offset="0.749466"
         stop-color="#014DB9"
         stop-opacity="0.99"
         id="stop18" />
      <stop
         offset="1"
         stop-color="#014DB9"
         stop-opacity="0"
         id="stop19" />
    </radialGradient>
    <radialGradient
       id="paint3_radial_10641_164"
       cx="0"
       cy="0"
       r="1"
       gradientUnits="userSpaceOnUse"
       gradientTransform="matrix(-392.23864,405.21148,-312.10417,-302.11216,439.444,5.40101)">
      <stop
         offset="0.249322"
         stop-color="#23C0FE"
         id="stop20" />
      <stop
         offset="0.717207"
         stop-color="#23C0FE"
         id="stop21" />
      <stop
         offset="0.995168"
         stop-color="#1C91FF"
         id="stop22" />
    </radialGradient>
    <radialGradient
       id="paint4_radial_10641_164"
       cx="0"
       cy="0"
       r="1"
       gradientUnits="userSpaceOnUse"
       gradientTransform="matrix(280.72436,289.77816,-68.935696,66.781877,119.961,37.1103)">
      <stop
         offset="0.165"
         stop-color="#096DD6"
         stop-opacity="0"
         id="stop23" />
      <stop
         offset="0.484233"
         stop-color="#096DD6"
         id="stop24" />
      <stop
         offset="0.900505"
         stop-color="#0876DE"
         stop-opacity="0.813868"
         id="stop25" />
      <stop
         offset="1"
         stop-color="#029AFF"
         stop-opacity="0"
         id="stop26" />
    </radialGradient>
    <radialGradient
       id="paint5_radial_10641_164"
       cx="0"
       cy="0"
       r="1"
       gradientUnits="userSpaceOnUse"
       gradientTransform="matrix(-1.8204863,64.773422,-58.332466,-1.6394603,385.776,245.022)">
      <stop
         stop-color="#0068B3"
         id="stop27" />
      <stop
         offset="0.93"
         stop-color="#006CB8"
         stop-opacity="0"
         id="stop28" />
    </radialGradient>
    <linearGradient
       id="paint6_linear_10641_164"
       x1="114.72"
       y1="97.522697"
       x2="182.067"
       y2="383.69901"
       gradientUnits="userSpaceOnUse">
      <stop
         stop-color="#92EEFE"
         id="stop29" />
      <stop
         offset="0.564559"
         stop-color="#35DDFF"
         id="stop30" />
      <stop
         offset="1"
         stop-color="#08B1F9"
         id="stop31" />
    </linearGradient>
    <radialGradient
       id="paint7_radial_10641_164"
       cx="0"
       cy="0"
       r="1"
       gradientUnits="userSpaceOnUse"
       gradientTransform="matrix(34.966498,93.328437,-75.381781,28.242591,67.7807,5.4011)">
      <stop
         stop-color="#CCF9FF"
         stop-opacity="0.93"
         id="stop32" />
      <stop
         offset="1"
         stop-color="#35DDFF"
         id="stop33" />
    </radialGradient>
  </defs>
  <sodipodi:namedview
     id="namedview20"
     pagecolor="#505050"
     bordercolor="#ffffff"
     borderopacity="1"
     inkscape:showpageshadow="0"
     inkscape:pageopacity="0"
     inkscape:pagecheckerboard="1"
     inkscape:deskcolor="#505050"
     showgrid="false"
     inkscape:zoom="3.4541666"
     inkscape:cx="9.5536794"
     inkscape:cy="40.675514"
     inkscape:window-width="1920"
     inkscape:window-height="1009"
     inkscape:window-x="-8"
     inkscape:window-y="-8"
     inkscape:window-maximized="1"
     inkscape:current-layer="svg18" />
  <g
     clip-path="url(#clip0_10641_164)"
     id="g8"
     transform="matrix(0.04037502,0,0,0.04037502,1.4973354,1.4961881)">
    <path
       d="m 0.685165,65.8523 c 0,-51.0875 66.800335,-79.0552 110.930835,-46.444 l 95.935,70.8452 80.963,-45.8805 c 42.791,-23.3336 111.36,-6.5982 112.171,57.186 v 235.063 c 0,51.088 -64.84,77.721 -108.97,45.11 L 194.031,309.34 112.973,355.23 C 69.7783,378.784 0.752625,360.714 0.752625,298.637 0.752654,224.124 0.685165,252.734 0.685165,65.8523 Z"
       fill="url(#paint0_linear_10641_164)"
       id="path1"
       style="fill:url(#paint0_linear_10641_164)" />
    <path
       d="m 0.685165,65.8523 c 0,-51.0875 66.800335,-79.0552 110.930835,-46.444 l 95.935,70.8452 80.963,-45.8805 c 42.791,-23.3336 111.36,-6.5982 112.171,57.186 v 235.063 c 0,51.088 -64.84,77.721 -108.97,45.11 L 194.031,309.34 112.973,355.23 C 69.7783,378.784 0.752625,360.714 0.752625,298.637 0.752654,224.124 0.685165,252.734 0.685165,65.8523 Z"
       fill="url(#paint1_radial_10641_164)"
       id="path2-0"
       style="fill:url(#paint1_radial_10641_164)" />
    <path
       d="m 0.685165,65.8523 c 0,-51.0875 66.800335,-79.0552 110.930835,-46.444 l 95.935,70.8452 80.963,-45.8805 c 42.791,-23.3336 111.36,-6.5982 112.171,57.186 v 235.063 c 0,51.088 -64.84,77.721 -108.97,45.11 L 194.031,309.34 112.973,355.23 C 69.7783,378.784 0.752625,360.714 0.752625,298.637 0.752654,224.124 0.685165,252.734 0.685165,65.8523 Z"
       fill="url(#paint2_radial_10641_164)"
       id="path3"
       style="fill:url(#paint2_radial_10641_164)" />
    <path
       d="M 111.616,19.4083 C 67.4855,-13.2029 0.685165,14.7648 0.685165,65.8523 V 295.742 c 0,-5.589 2.847535,-16.716 2.847535,-16.716 13.1627,-43.025 69.116,-59.157 107.8273,-30.803 l 180.355,133.509 c 44.13,32.611 108.97,5.978 108.97,-45.11 V 101.559 c 0,43.642 -57.042,87.452 -110.93,49.492 z"
       fill="url(#paint3_radial_10641_164)"
       id="path4-9"
       style="fill:url(#paint3_radial_10641_164)" />
    <path
       d="M 111.616,19.4083 C 67.4855,-13.2029 0.685165,14.7648 0.685165,65.8523 V 295.742 c 0,-5.589 2.847535,-16.716 2.847535,-16.716 13.1627,-43.025 69.116,-59.157 107.8273,-30.803 l 180.355,133.509 c 44.13,32.611 108.97,5.978 108.97,-45.11 V 101.559 c 0,43.642 -57.042,87.452 -110.93,49.492 z"
       fill="url(#paint4_radial_10641_164)"
       fill-opacity="0.25"
       id="path5"
       style="fill:url(#paint4_radial_10641_164)" />
    <path
       d="M 111.616,19.4083 C 67.4855,-13.2029 0.685165,14.7648 0.685165,65.8523 V 295.742 c 0,-5.589 2.847535,-16.716 2.847535,-16.716 13.1627,-43.025 69.116,-59.157 107.8273,-30.803 l 180.355,133.509 c 44.13,32.611 108.97,5.978 108.97,-45.11 V 101.559 c 0,43.642 -57.042,87.452 -110.93,49.492 z"
       fill="url(#paint5_radial_10641_164)"
       fill-opacity="0.55"
       id="path6"
       style="fill:url(#paint5_radial_10641_164)" />
    <path
       d="M 111.616,149.691 C 67.4855,117.08 0.685165,145.048 0.685165,196.135 l 1.4e-5,-130.2827 c 4e-6,-51.0875 66.800321,-79.0552 110.930821,-46.444 59.38,43.8805 118.758,87.7627 178.139,131.6427 53.888,37.96 110.93,-5.85 110.93,-49.492 V 234.89 c 0,51.088 -66.8,79.056 -110.93,46.444 -59.381,-43.88 -118.759,-87.762 -178.139,-131.643 z"
       fill="url(#paint6_linear_10641_164)"
       id="path7"
       style="fill:url(#paint6_linear_10641_164)" />
    <path
       d="M 111.616,149.691 C 67.4855,117.08 0.685165,145.048 0.685165,196.135 l 1.4e-5,-130.2827 c 4e-6,-51.0875 66.800321,-79.0552 110.930821,-46.444 59.38,43.8805 118.758,87.7627 178.139,131.6427 53.888,37.96 110.93,-5.85 110.93,-49.492 V 234.89 c 0,51.088 -66.8,79.056 -110.93,46.444 -59.381,-43.88 -118.759,-87.762 -178.139,-131.643 z"
       fill="url(#paint7_radial_10641_164)"
       fill-opacity="0.35"
       id="path8"
       style="fill:url(#paint7_radial_10641_164)" />
  </g>
</svg>
