<?xml version="1.0" encoding="UTF-8" standalone="no"?>
<!-- Generated by Microsoft Visio, SVG Export microsoft-intune.svg Page-1 -->

<svg
   width="96"
   height="96"
   viewBox="0 0 96.000001 96.000002"
   xml:space="preserve"
   color-interpolation-filters="sRGB"
   class="st7"
   version="1.1"
   id="svg62"
   sodipodi:docname="intune.svg"
   inkscape:version="1.2.2 (732a01da63, 2022-12-09)"
   xmlns:inkscape="http://www.inkscape.org/namespaces/inkscape"
   xmlns:sodipodi="http://sodipodi.sourceforge.net/DTD/sodipodi-0.dtd"
   xmlns="http://www.w3.org/2000/svg"
   xmlns:svg="http://www.w3.org/2000/svg"
   xmlns:v="http://schemas.microsoft.com/visio/2003/SVGExtensions/"><sodipodi:namedview
   id="namedview64"
   pagecolor="#505050"
   bordercolor="#ffffff"
   borderopacity="1"
   inkscape:showpageshadow="0"
   inkscape:pageopacity="0"
   inkscape:pagecheckerboard="1"
   inkscape:deskcolor="#505050"
   showgrid="false"
   inkscape:zoom="4"
   inkscape:cx="47.875"
   inkscape:cy="59.75"
   inkscape:window-width="1920"
   inkscape:window-height="1009"
   inkscape:window-x="-8"
   inkscape:window-y="-8"
   inkscape:window-maximized="1"
   inkscape:current-layer="svg62" />
	<v:documentProperties
   v:langID="1033"
   v:viewMarkup="false" />

	<style
   type="text/css"
   id="style2">
	<![CDATA[
		.st1 {fill:url(#grad0-5);stroke:none;stroke-linecap:butt;stroke-width:0.75}
		.st2 {fill:#ffffff;stroke:none;stroke-linecap:butt;stroke-width:0.75}
		.st3 {fill:url(#grad0-11);stroke:none;stroke-linecap:butt;stroke-width:0.75}
		.st4 {fill:#32bedd;stroke:none;stroke-linecap:butt;stroke-width:0.75}
		.st5 {fill:url(#grad0-19);stroke:none;stroke-linecap:butt;stroke-width:0.75}
		.st6 {fill:#0078d4;stroke:none;stroke-linecap:butt;stroke-width:0.75}
		.st7 {fill:none;fill-rule:evenodd;font-size:12px;overflow:visible;stroke-linecap:square;stroke-miterlimit:3}
	]]>
	</style>

	<defs
   id="Patterns_And_Gradients">
		<linearGradient
   id="grad0-5"
   x1="-0.0017017915"
   y1="14.883376"
   x2="24.2104"
   y2="14.883376"
   gradientTransform="scale(1.2251795,0.81620694)"
   gradientUnits="userSpaceOnUse">
			<stop
   offset="0"
   stop-color="#0078d4"
   stop-opacity="1"
   id="stop4" />
			<stop
   offset="0.82"
   stop-color="#5ea0ef"
   stop-opacity="1"
   id="stop6" />
		</linearGradient>
		<linearGradient
   id="grad0-11"
   x1="0"
   y1="34.117825"
   x2="10.574285"
   y2="34.117825"
   gradientTransform="scale(1.4005675,0.71399628)"
   gradientUnits="userSpaceOnUse">
			<stop
   offset="0"
   stop-color="#1490df"
   stop-opacity="1"
   id="stop9" />
			<stop
   offset="0.98"
   stop-color="#1f56a3"
   stop-opacity="1"
   id="stop11" />
		</linearGradient>
		<linearGradient
   id="grad0-19"
   x1="0"
   y1="26.170012"
   x2="5.7353802"
   y2="26.170012"
   gradientUnits="userSpaceOnUse">
			<stop
   offset="0"
   stop-color="#d2ebff"
   stop-opacity="1"
   id="stop14" />
			<stop
   offset="1"
   stop-color="#f0fffd"
   stop-opacity="1"
   id="stop16" />
		</linearGradient>
	</defs>
	<g
   v:mID="0"
   v:index="1"
   v:groupContext="foregroundPage"
   id="g60"
   transform="matrix(2.5466116,0,0,2.5466116,3.595351,7.3661189)">
		<title
   id="title20">Page-1</title>
		<v:pageProperties
   v:drawingScale="1"
   v:pageScale="1"
   v:drawingUnits="19"
   v:shadowOffsetX="9"
   v:shadowOffsetY="-9" />
		<g
   id="group1-1"
   transform="translate(0.75,-0.75)"
   v:mID="1"
   v:groupContext="group">
			<title
   id="title22">Icon-intune-329</title>
			<g
   id="shape2-2"
   v:mID="2"
   v:groupContext="shape"
   transform="translate(0,-10.6458)">
				<title
   id="title24">Sheet.2</title>
				<path
   d="m 0,30.92 a 0.982108,0.982108 -180 0 0 0.982085,0.982085 L 28.68,31.91 a 0.982108,0.982108 -180 0 0 0.982085,-0.982085 L 29.66,13.13 A 0.982108,0.982108 -180 0 0 28.677915,12.147915 L 0.98,12.15 a 0.982108,0.982108 -180 0 0 -0.982085,0.982085 z"
   class="st1"
   id="path26"
   style="fill:url(#grad0-5)" />
			</g>
			<g
   id="shape3-6"
   v:mID="3"
   v:groupContext="shape"
   transform="translate(1.6499,-12.2761)">
				<title
   id="title29">Sheet.3</title>
				<path
   d="m 0,31.36 a 0.54998,0.54998 -180 0 0 0.549968,0.549968 L 25.81,31.91 a 0.54998,0.54998 -180 0 0 0.549968,-0.549968 L 26.36,15.98 A 0.54998,0.54998 -180 0 0 25.810032,15.430032 L 0.55,15.43 A 0.54998,0.54998 -180 0 0 3.2e-5,15.979968 Z"
   class="st2"
   id="path31" />
			</g>
			<g
   id="shape4-8"
   v:mID="4"
   v:groupContext="shape"
   transform="translate(7.346,-3.00518)">
				<title
   id="title34">Sheet.4</title>
				<path
   d="M 13.43,30.26 C 10.49,29.8 10.37,27.68 10.39,24.36 H 4.5 c 0,3.42 -0.12,5.54 -3.05,5.9 A 1.70883,1.70883 -180 0 0 0,31.91 h 14.81 a 1.72847,1.72847 -180 0 0 -1.38,-1.65 z"
   class="st3"
   id="path36"
   style="fill:url(#grad0-11)" />
			</g>
			<g
   id="shape5-12"
   v:mID="5"
   v:groupContext="shape"
   transform="translate(10.2456)">
				<title
   id="title39">Sheet.5</title>
				<path
   d="M 22.5,10.63 H 8.98 a 4.53723,4.53723 -180 1 0 0,1.81 h 1.4 v 18.82 a 0.648176,0.648176 -180 0 0 0.648176,0.648176 L 22.48,31.91 a 0.648176,0.648176 -180 0 0 0.648176,-0.648176 L 23.13,11.28 a 0.648176,0.648176 -180 0 0 -0.628534,-0.648176 z"
   class="st4"
   id="path41" />
			</g>
			<g
   id="shape6-14"
   v:mID="6"
   v:groupContext="shape"
   transform="translate(21.8416,-2.39629)">
				<title
   id="title44">Sheet.6</title>
				<path
   d="m 0,31.67 a 0.235706,0.235706 -180 0 0 0.2357,0.2357 L 10.12,31.91 a 0.235706,0.235706 -180 0 0 0.2357,-0.2357 L 10.35,15.05 A 0.235706,0.235706 -180 0 0 10.1143,14.8143 L 0.24,14.82 a 0.235706,0.235706 -180 0 0 -0.2357,0.2357 z"
   class="st2"
   id="path46" />
			</g>
			<g
   id="shape7-16"
   v:mID="7"
   v:groupContext="shape"
   transform="translate(11.9618,-17.4222)">
				<title
   id="title49">Sheet.7</title>
				<circle
   cx="2.8676901"
   cy="29.037701"
   class="st5"
   id="ellipse51"
   r="2.8676901"
   style="fill:url(#grad0-19)" />
			</g>
			<g
   id="shape8-20"
   v:mID="8"
   v:groupContext="shape"
   transform="translate(20.6238,-9.11997)">
				<title
   id="title54">Sheet.8</title>
				<path
   d="M 7.62,29.4 5.42,27.2 A 0.11785,0.11785 -180 0 0 5.223583,27.29821 L 5.22,28.63 A 0.11785,0.11785 0 0 1 5.10215,28.74785 L 0,28.75 v 1.63 h 5.11 a 0.11785,0.11785 0 0 1 0.11785,0.11785 L 5.22,31.85 a 0.11785,0.11785 -180 0 0 0.196417,0 L 7.62,29.75 a 0.2357,0.2357 -180 0 0 0,-0.353551 z"
   class="st6"
   id="path56" />
			</g>
		</g>
	</g>
</svg>
