<?xml version="1.0" encoding="UTF-8" standalone="no"?>
<!-- Generator: Adobe Illustrator 23.0.1, SVG Export Plug-In . SVG Version: 6.00 Build 0)  -->

<svg
   version="1.1"
   id="Livello_1"
   x="0px"
   y="0px"
   viewBox="0 0 96 96"
   enable-background="new 0 0 1992.333 1946"
   xml:space="preserve"
   sodipodi:docname="sharepoint.svg"
   width="96"
   height="96"
   inkscape:version="1.2.2 (732a01da63, 2022-12-09)"
   xmlns:inkscape="http://www.inkscape.org/namespaces/inkscape"
   xmlns:sodipodi="http://sodipodi.sourceforge.net/DTD/sodipodi-0.dtd"
   xmlns="http://www.w3.org/2000/svg"
   xmlns:svg="http://www.w3.org/2000/svg"
   xmlns:ns="&amp;ns_sfw;"><defs
   id="defs32" /><sodipodi:namedview
   id="namedview30"
   pagecolor="#505050"
   bordercolor="#ffffff"
   borderopacity="1"
   inkscape:showpageshadow="0"
   inkscape:pageopacity="0"
   inkscape:pagecheckerboard="1"
   inkscape:deskcolor="#505050"
   showgrid="false"
   inkscape:zoom="4.8196631"
   inkscape:cx="40.770485"
   inkscape:cy="62.867465"
   inkscape:window-width="1920"
   inkscape:window-height="1009"
   inkscape:window-x="-8"
   inkscape:window-y="-8"
   inkscape:window-maximized="1"
   inkscape:current-layer="Livello_1" />
<metadata
   id="metadata2">
	<ns:sfw>
		<ns:slices />
		<ns:sliceSourceBounds
   bottomLeftOrigin="true"
   height="1946"
   width="1992.333"
   x="-995.333"
   y="-949" />
	</ns:sfw>
</metadata>







<linearGradient
   id="SVGID_1_"
   gradientUnits="userSpaceOnUse"
   x1="177.0788"
   y1="1551.0284"
   x2="842.25452"
   y2="398.97159"
   gradientTransform="matrix(1,0,0,-1,0,1948)">
	<stop
   offset="0"
   style="stop-color:#058F92"
   id="stop18" />
	<stop
   offset="0.5"
   style="stop-color:#038489"
   id="stop20" />
	<stop
   offset="1"
   style="stop-color:#026D71"
   id="stop22" />
</linearGradient>

<g
   id="g347"
   transform="matrix(0.04266353,0,0,0.04266353,5.4999996,6.4883853)"><circle
     fill="#036c70"
     cx="1019.333"
     cy="556"
     r="556"
     id="circle4" /><circle
     fill="#1a9ba1"
     cx="1482.667"
     cy="1065.667"
     r="509.66699"
     id="circle6" /><circle
     fill="#37c6d0"
     cx="1088.833"
     cy="1552.167"
     r="393.83301"
     id="circle8" /><path
     opacity="0.1"
     enable-background="new    "
     d="m 1112,501.79 v 988.753 c -0.23,34.357 -21.05,65.222 -52.82,78.303 -10.116,4.279 -20.987,6.484 -31.97,6.487 H 695.463 C 695,1567.456 695,1560.043 695,1552.166 c -0.154,-7.734 0.155,-15.47 0.927,-23.167 8.48,-148.106 99.721,-278.782 235.837,-337.77 v -86.18 C 628.832,1057.044 422.172,772.554 470.177,469.622 c 0.333,-2.098 0.677,-4.195 1.034,-6.289 2.306,-15.626 5.556,-31.099 9.73,-46.333 h 546.27 c 46.753,0.178 84.611,38.036 84.789,84.79 z"
     id="path10" /><path
     opacity="0.2"
     enable-background="new    "
     d="M 980.877,463.333 H 471.21 c -51.486,302.386 151.908,589.256 454.293,640.742 9.156,1.559 18.35,2.888 27.573,3.986 -143.633,68.11 -248.3,261.552 -257.196,420.938 -0.771,7.697 -1.081,15.433 -0.927,23.167 0,7.877 0,15.29 0.463,23.167 0.836,15.574 2.85,31.063 6.023,46.333 h 279.39 c 34.357,-0.23 65.222,-21.05 78.303,-52.82 4.279,-10.115 6.485,-20.987 6.487,-31.97 V 548.123 c -0.176,-46.736 -38.006,-84.586 -84.742,-84.79 z"
     id="path12" /><path
     opacity="0.2"
     enable-background="new    "
     d="M 980.877,463.333 H 471.21 c -51.475,302.414 151.95,589.297 454.364,640.773 6.186,1.053 12.389,2.001 18.607,2.844 -139,73.021 -239.543,266 -248.254,422.05 h 284.95 c 46.681,-0.353 84.437,-38.109 84.79,-84.79 V 548.123 c -0.178,-46.754 -38.036,-84.612 -84.79,-84.79 z"
     id="path14" /><path
     opacity="0.2"
     enable-background="new    "
     d="M 934.543,463.333 H 471.21 C 422.604,748.815 601.489,1023.737 882.187,1094.949 775.901,1216.384 710.711,1368.301 695.927,1529 h 238.617 c 46.754,-0.178 84.612,-38.036 84.79,-84.79 V 548.123 c -0.026,-46.817 -37.973,-84.764 -84.791,-84.79 z"
     id="path16" /><path
     fill="url(#SVGID_1_)"
     d="m 84.929,463.333 h 849.475 c 46.905,0 84.929,38.024 84.929,84.929 v 849.475 c 0,46.905 -38.024,84.929 -84.929,84.929 H 84.929 C 38.024,1482.666 0,1444.642 0,1397.737 V 548.262 c 0,-46.905 38.024,-84.929 84.929,-84.929 z"
     id="path25"
     style="fill:url(#SVGID_1_)" /><path
     fill="#ffffff"
     d="m 379.331,962.621 c -19.903,-13.202 -36.528,-30.777 -48.604,-51.384 -11.701,-21.542 -17.533,-45.781 -16.912,-70.288 -1.042,-33.181 10.155,-65.586 31.46,-91.045 22.388,-25.49 51.326,-44.366 83.678,-54.581 36.871,-12.136 75.49,-18.116 114.304,-17.699 51.043,-1.865 102.015,5.272 150.583,21.082 v 106.567 c -21.103,-12.784 -44.088,-22.166 -68.11,-27.8 -26.065,-6.392 -52.81,-9.597 -79.647,-9.545 -28.3,-1.039 -56.419,4.913 -81.871,17.329 -19.65,8.475 -32.392,27.807 -32.433,49.206 -0.08,12.981 4.907,25.481 13.9,34.843 10.622,11.037 23.187,20.021 37.067,26.503 15.444,7.691 38.611,17.916 69.5,30.673 3.401,1.075 6.716,2.407 9.915,3.985 30.401,11.881 59.729,26.344 87.663,43.229 21.154,13.043 38.908,30.924 51.801,52.171 13.218,24.085 19.625,51.315 18.533,78.767 1.509,34.066 -8.913,67.591 -29.468,94.798 -20.488,25.012 -47.88,43.446 -78.767,53.005 -36.329,11.387 -74.245,16.892 -112.312,16.309 -34.154,0.155 -68.258,-2.635 -101.933,-8.34 -28.434,-4.653 -56.182,-12.807 -82.612,-24.279 v -112.358 c 25.264,18.043 53.489,31.529 83.4,39.847 29.81,9.289 60.798,14.251 92.018,14.734 28.895,1.83 57.739,-4.291 83.4,-17.699 17.976,-10.144 28.909,-29.358 28.449,-49.994 0.12,-14.359 -5.56,-28.158 -15.753,-38.271 -12.676,-12.444 -27.352,-22.671 -43.414,-30.256 -18.533,-9.267 -45.824,-21.483 -81.871,-36.65 -28.677,-11.529 -56.134,-25.886 -81.964,-42.859 z"
     id="path27" /></g>
</svg>
