<?xml version="1.0" encoding="UTF-8" standalone="no"?>
<svg
   viewBox="0 0 96 96"
   version="1.1"
   id="svg37"
   sodipodi:docname="teams.svg"
   width="96"
   height="96"
   inkscape:version="1.2.2 (732a01da63, 2022-12-09)"
   xmlns:inkscape="http://www.inkscape.org/namespaces/inkscape"
   xmlns:sodipodi="http://sodipodi.sourceforge.net/DTD/sodipodi-0.dtd"
   xmlns="http://www.w3.org/2000/svg"
   xmlns:svg="http://www.w3.org/2000/svg">
  <defs
     id="defs41" />
  <sodipodi:namedview
     id="namedview39"
     pagecolor="#505050"
     bordercolor="#ffffff"
     borderopacity="1"
     inkscape:showpageshadow="0"
     inkscape:pageopacity="0"
     inkscape:pagecheckerboard="1"
     inkscape:deskcolor="#505050"
     showgrid="false"
     inkscape:zoom="4.5236652"
     inkscape:cx="49.18578"
     inkscape:cy="63.886249"
     inkscape:window-width="1920"
     inkscape:window-height="1009"
     inkscape:window-x="-8"
     inkscape:window-y="-8"
     inkscape:window-maximized="1"
     inkscape:current-layer="svg37" />
  <linearGradient
     id="a"
     gradientUnits="userSpaceOnUse"
     x1="198.099"
     y1="1683.0726"
     x2="942.23438"
     y2="394.26071"
     gradientTransform="matrix(1,0,0,-1,0,2075.3333)">
    <stop
       offset="0"
       stop-color="#5a62c3"
       id="stop26" />
    <stop
       offset=".5"
       stop-color="#4d55bd"
       id="stop28" />
    <stop
       offset="1"
       stop-color="#3940ab"
       id="stop30" />
  </linearGradient>
  <g
     id="g284"
     transform="matrix(0.03813655,0,0,0.03813655,5.4999994,8.4650971)">
    <path
       fill="#5059c9"
       d="m 1554.637,777.5 h 575.713 c 54.391,0 98.483,44.092 98.483,98.483 0,0 0,0 0,0 v 524.398 c 0,199.901 -162.051,361.952 -361.952,361.952 v 0 h -1.711 c -199.901,0.028 -361.975,-162 -362.004,-361.901 0,-0.017 0,-0.034 0,-0.052 V 828.971 c 10e-4,-28.427 23.045,-51.471 51.471,-51.471 z"
       id="path2" />
    <circle
       fill="#5059c9"
       cx="1943.75"
       cy="440.58301"
       r="233.25"
       id="circle4" />
    <circle
       fill="#7b83eb"
       cx="1218.083"
       cy="336.91699"
       r="336.91699"
       id="circle6" />
    <path
       fill="#7b83eb"
       d="M 1667.323,777.5 H 717.01 c -53.743,1.33 -96.257,45.931 -95.01,99.676 v 598.105 c -7.505,322.519 247.657,590.16 570.167,598.053 322.51,-7.893 577.671,-275.534 570.167,-598.053 V 877.176 c 1.245,-53.745 -41.268,-98.346 -95.011,-99.676 z"
       id="path8" />
    <path
       opacity="0.1"
       d="m 1244,777.5 v 838.145 c -0.258,38.435 -23.549,72.964 -59.09,87.598 -11.316,4.787 -23.478,7.254 -35.765,7.257 H 667.613 c -6.738,-17.105 -12.958,-34.21 -18.142,-51.833 -18.144,-59.477 -27.402,-121.307 -27.472,-183.49 V 877.02 c -1.246,-53.659 41.198,-98.19 94.855,-99.52 z"
       id="path10" />
    <path
       opacity="0.2"
       d="m 1192.167,777.5 v 889.978 c 0,12.287 -2.47,24.449 -7.257,35.765 -14.634,35.541 -49.163,58.833 -87.598,59.09 H 691.975 c -8.812,-17.105 -17.105,-34.21 -24.362,-51.833 -7.257,-17.623 -12.958,-34.21 -18.142,-51.833 -18.144,-59.476 -27.402,-121.307 -27.472,-183.49 V 877.02 c -1.246,-53.659 41.198,-98.19 94.855,-99.52 z"
       id="path12" />
    <path
       opacity="0.2"
       d="m 1192.167,777.5 v 786.312 c -0.395,52.223 -42.632,94.46 -94.855,94.855 H 649.472 C 631.328,1599.191 622.07,1537.36 622,1475.177 V 877.02 c -1.246,-53.659 41.198,-98.19 94.855,-99.52 z"
       id="path14" />
    <path
       opacity="0.2"
       d="m 1140.333,777.5 v 786.312 c -0.395,52.223 -42.632,94.46 -94.855,94.855 H 649.472 C 631.328,1599.191 622.07,1537.36 622,1475.177 V 877.02 c -1.246,-53.659 41.198,-98.19 94.855,-99.52 z"
       id="path16" />
    <path
       opacity="0.1"
       d="m 1244,509.522 v 163.275 c -8.812,0.518 -17.105,1.037 -25.917,1.037 -8.812,0 -17.105,-0.518 -25.917,-1.037 -17.496,-1.161 -34.848,-3.937 -51.833,-8.293 C 1035.37,639.647 948.654,566.035 907.083,466.501 899.93,449.786 894.377,432.43 890.496,414.668 h 258.648 c 52.305,0.198 94.657,42.549 94.856,94.854 z"
       id="path18" />
    <path
       opacity="0.2"
       d="m 1192.167,561.355 v 111.442 c -17.496,-1.161 -34.848,-3.937 -51.833,-8.293 -104.963,-24.857 -191.679,-98.469 -233.25,-198.003 h 190.228 c 52.304,0.198 94.656,42.55 94.855,94.854 z"
       id="path20" />
    <path
       opacity="0.2"
       d="m 1192.167,561.355 v 111.442 c -17.496,-1.161 -34.848,-3.937 -51.833,-8.293 -104.963,-24.857 -191.679,-98.469 -233.25,-198.003 h 190.228 c 52.304,0.198 94.656,42.55 94.855,94.854 z"
       id="path22" />
    <path
       opacity="0.2"
       d="M 1140.333,561.355 V 664.503 C 1035.37,639.646 948.654,566.034 907.083,466.5 h 138.395 c 52.305,0.199 94.656,42.551 94.855,94.855 z"
       id="path24" />
    <path
       fill="url(#a)"
       d="m 95.01,466.5 h 950.312 c 52.473,0 95.01,42.538 95.01,95.01 v 950.312 c 0,52.473 -42.538,95.01 -95.01,95.01 H 95.01 C 42.537,1606.832 0,1564.294 0,1511.822 V 561.51 C 0,509.038 42.538,466.5 95.01,466.5 Z"
       id="path33"
       style="fill:url(#a)" />
    <path
       fill="#ffffff"
       d="M 820.211,828.193 H 630.241 V 1345.49 H 509.211 V 828.193 H 320.123 V 727.844 h 500.088 z"
       id="path35" />
  </g>
</svg>
