<?xml version="1.0" encoding="UTF-8" standalone="no"?>
<svg
   viewBox="0 0 96 96"
   version="1.1"
   id="svg37"
   sodipodi:docname="teams.svg"
   width="96"
   height="96"
   inkscape:version="1.2.2 (732a01da63, 2022-12-09)"
   xmlns:inkscape="http://www.inkscape.org/namespaces/inkscape"
   xmlns:sodipodi="http://sodipodi.sourceforge.net/DTD/sodipodi-0.dtd"
   xmlns="http://www.w3.org/2000/svg"
   xmlns:svg="http://www.w3.org/2000/svg">
  <defs
     id="defs41">
    <linearGradient
       id="paint0_linear_20_275"
       x1="5.375"
       y1="0.947815"
       x2="14.887"
       y2="31.399799"
       gradientUnits="userSpaceOnUse"
       gradientTransform="matrix(2.65625,0,0,2.65625,5.499998,5.5000146)">
      <stop
         stop-color="#50E6FF"
         id="stop20"
         offset="0"
         style="stop-color:#e0e0e0;stop-opacity:1;" />
      <stop
         offset="1"
         stop-color="#0078D4"
         id="stop22"
         style="stop-color:#5a5a5a;stop-opacity:1;" />
    </linearGradient>
  </defs>
  <sodipodi:namedview
     id="namedview39"
     pagecolor="#505050"
     bordercolor="#ffffff"
     borderopacity="1"
     inkscape:showpageshadow="0"
     inkscape:pageopacity="0"
     inkscape:pagecheckerboard="1"
     inkscape:deskcolor="#505050"
     showgrid="false"
     inkscape:zoom="4.5236652"
     inkscape:cx="22.437558"
     inkscape:cy="30.506236"
     inkscape:window-width="1920"
     inkscape:window-height="1009"
     inkscape:window-x="1912"
     inkscape:window-y="-8"
     inkscape:window-maximized="1"
     inkscape:current-layer="g284" />
  <linearGradient
     id="a"
     gradientUnits="userSpaceOnUse"
     x1="198.099"
     y1="1683.0726"
     x2="942.23438"
     y2="394.26071"
     gradientTransform="matrix(1,0,0,-1,0,2075.3333)">
    <stop
       offset="0"
       stop-color="#5a62c3"
       id="stop26" />
    <stop
       offset=".5"
       stop-color="#4d55bd"
       id="stop28" />
    <stop
       offset="1"
       stop-color="#3940ab"
       id="stop30" />
  </linearGradient>
  <g
     id="g284"
     transform="matrix(0.03813655,0,0,0.03813655,5.4999994,8.4650971)">
    <path
       id="path2-7"
       style="fill:url(#paint0_linear_20_275);stroke-width:2.65625"
       d="M 33.966797 8.0175781 C 33.691348 8.0220827 33.412785 8.072659 33.142578 8.1738281 C 30.966633 8.9885788 28.828806 9.9931611 26.75 11.193359 C 24.671195 12.393558 22.733058 13.743618 20.939453 15.220703 C 20.048601 15.954359 19.794807 17.198099 20.269531 18.25 L 23.357422 25.091797 C 19.9434 28.762889 17.338615 33.199224 15.830078 38.113281 L 8.3710938 38.859375 C 7.2227499 38.974125 6.2719661 39.814923 6.0820312 40.953125 C 5.6996286 43.244936 5.5 45.599548 5.5 48 C 5.5 50.400451 5.6996276 52.754799 6.0820312 55.046875 C 6.2719641 56.185077 7.2227529 57.025875 8.3710938 57.140625 L 15.830078 57.886719 C 16.916881 61.427231 18.572318 64.719769 20.689453 67.65625 C 21.517086 68.809062 22.407813 69.894861 23.353516 70.914062 L 20.269531 77.75 C 19.794807 78.801874 20.048601 80.045641 20.939453 80.779297 C 22.733058 82.256435 24.671194 83.606283 26.75 84.806641 C 28.828779 86.006733 30.966633 87.011236 33.142578 87.826172 C 34.223405 88.230718 35.427938 87.827749 36.101562 86.890625 L 40.478516 80.802734 C 41.833468 81.111921 43.219064 81.338 44.630859 81.478516 C 45.747546 81.591671 46.872688 81.651244 48 81.652344 C 49.12864 81.651281 50.254767 81.592204 51.373047 81.478516 C 52.783514 81.338266 54.167861 81.111656 55.521484 80.802734 L 59.898438 86.890625 C 60.572062 87.82779 61.776595 88.230718 62.857422 87.826172 C 65.03342 87.011236 67.171221 86.006733 69.25 84.806641 C 71.328779 83.606548 73.267049 82.256435 75.060547 80.779297 C 75.951456 80.045641 76.205408 78.801874 75.730469 77.75 L 72.646484 70.914062 C 73.595295 69.891674 74.488552 68.801593 75.318359 67.644531 C 77.431677 64.710972 79.084583 61.422715 80.169922 57.886719 L 87.628906 57.140625 C 88.777205 57.025875 89.728049 56.185077 89.917969 55.046875 C 90.300468 52.755064 90.5 50.400451 90.5 48 C 90.5 45.599548 90.300468 43.244936 89.917969 40.953125 C 89.728049 39.814923 88.777205 38.974125 87.628906 38.859375 L 80.169922 38.113281 C 79.420063 35.670331 78.398717 33.345018 77.142578 31.173828 C 75.871829 28.97751 74.359576 26.937915 72.642578 25.091797 L 75.730469 18.25 C 76.205408 17.198099 75.951456 15.954359 75.060547 15.220703 C 73.267049 13.743618 71.328779 12.393558 69.25 11.193359 C 67.171221 9.9931611 65.03342 8.9885788 62.857422 8.1738281 C 61.776595 7.7691514 60.572062 8.172304 59.898438 9.109375 L 55.521484 15.197266 C 53.103237 14.645059 50.585591 14.353516 48 14.353516 C 45.414409 14.353516 42.896763 14.645059 40.478516 15.197266 L 36.101562 9.109375 C 35.596344 8.4065688 34.793143 8.0040643 33.966797 8.0175781 z M 48 27.392578 A 20.607817 20.607817 0 0 1 68.607422 48 A 20.607817 20.607817 0 0 1 48 68.607422 A 20.607817 20.607817 0 0 1 27.392578 48 A 20.607817 20.607817 0 0 1 48 27.392578 z "
       transform="matrix(26.221564,0,0,26.221564,-144.21859,-221.96809)" />
    <path
       id="circle4-6"
       style="fill-opacity:0.1;stroke-width:2.65625"
       d="M 48,24.757812 C 35.163694,24.757811 24.757811,35.163694 24.757812,48 24.757811,60.836306 35.163694,71.242189 48,71.242188 60.836306,71.242189 71.242189,60.836306 71.242188,48 71.242189,35.163694 60.836306,24.757811 48,24.757812 Z m 0,2.634766 C 59.381075,27.392796 68.607204,36.618925 68.607422,48 68.607204,59.381075 59.381075,68.607204 48,68.607422 36.618925,68.607204 27.392796,59.381075 27.392578,48 27.392796,36.618925 36.618925,27.392796 48,27.392578 Z"
       transform="matrix(26.221564,0,0,26.221564,-144.21859,-221.96809)"
       sodipodi:nodetypes="sssssccccc" />
    <path
       id="path14"
       style="opacity:0.505703;fill:#000000;fill-opacity:1;stroke-width:69.651"
       d="M 441.10614 549.10979 C 389.8291 549.10979 348.25517 590.68372 348.25517 641.96076 L 348.25517 1474.393 C 363.59997 1501.1947 380.31015 1527.0914 398.29124 1552.0334 C 419.99309 1582.2619 443.3493 1610.7845 468.14712 1637.5096 L 456.41912 1663.5263 L 1115.7993 1663.5263 C 1167.0763 1663.5263 1208.6502 1621.9523 1208.6502 1570.6753 L 1208.6502 1567.5513 C 1177.9226 1572.9797 1146.7015 1577.0252 1114.4165 1577.0258 C 815.98721 1577.0201 574.06338 1335.0963 574.05766 1036.667 C 574.0618 820.58901 701.75363 635.56211 885.02903 549.10979 L 441.10614 549.10979 z " />
    <path
       fill="url(#a)"
       d="m 95.01,466.5 h 950.312 c 52.473,0 95.01,42.538 95.01,95.01 v 950.312 c 0,52.473 -42.538,95.01 -95.01,95.01 H 95.01 C 42.537,1606.832 0,1564.294 0,1511.822 V 561.51 C 0,509.038 42.538,466.5 95.01,466.5 Z"
       id="path33"
       style="fill:url(#a)" />
    <path
       fill="#ffffff"
       d="M 820.211,828.193 H 630.241 V 1345.49 H 509.211 V 828.193 H 320.123 V 727.844 h 500.088 z"
       id="path35" />
  </g>
</svg>
